<svg version="1.1" id="Layer_1" xmlns="http://www.w3.org/2000/svg" xmlns:xlink="http://www.w3.org/1999/xlink" x="0px" y="0px"
	 width="100%" viewBox="0 0 1000 1000" enable-background="new 0 0 1000 1000" xml:space="preserve">
<path fill="#000000" opacity="1.000000" stroke="none" 
	d="
M464.000000,1001.000000 
	C309.333344,1001.000000 155.166672,1001.000000 1.000000,1001.000000 
	C1.000000,667.666687 1.000000,334.333344 1.000000,1.000000 
	C334.333344,1.000000 667.666687,1.000000 1001.000000,1.000000 
	C1001.000000,334.333344 1001.000000,667.666687 1001.000000,1001.000000 
	C822.166687,1001.000000 643.333313,1001.000000 464.000000,1001.000000 
M608.500000,354.000305 
	C528.349365,354.000397 448.197784,353.814301 368.049225,354.223907 
	C357.409851,354.278320 346.500458,356.347229 336.212402,359.245056 
	C312.487793,365.927490 293.557312,380.150604 278.850586,399.769165 
	C266.568207,416.153656 258.856476,434.696838 257.158112,455.126434 
	C255.130219,479.519226 259.433624,502.900970 272.087189,524.235046 
	C280.012360,537.596863 290.112366,549.130066 302.781158,558.235596 
	C323.826904,573.361877 347.323730,580.171021 373.270172,580.091736 
	C455.586182,579.840027 537.903625,579.914673 620.220032,580.081116 
	C634.026062,580.109009 647.604736,578.416809 660.346558,573.671021 
	C687.925110,563.399048 709.288757,545.353455 722.957642,518.971436 
	C734.040833,497.579865 737.643494,474.944733 734.143677,450.974854 
	C732.229431,437.864502 728.479370,425.418152 722.241455,413.953064 
	C715.097229,400.822357 706.144470,388.892914 694.116211,379.561829 
	C683.437622,371.277832 671.994934,364.449493 659.192444,360.011719 
	C643.064697,354.421295 626.376709,353.420746 608.500000,354.000305 
z"/>
<path fill="#3B59D9" opacity="1.000000" stroke="none" 
	d="
M609.000000,354.000305 
	C626.376709,353.420746 643.064697,354.421295 659.192444,360.011719 
	C671.994934,364.449493 683.437622,371.277832 694.116211,379.561829 
	C706.144470,388.892914 715.097229,400.822357 722.241455,413.953064 
	C728.479370,425.418152 732.229431,437.864502 734.143677,450.974854 
	C737.643494,474.944733 734.040833,497.579865 722.957642,518.971436 
	C709.288757,545.353455 687.925110,563.399048 660.346558,573.671021 
	C647.604736,578.416809 634.026062,580.109009 620.220032,580.081116 
	C537.903625,579.914673 455.586182,579.840027 373.270172,580.091736 
	C347.323730,580.171021 323.826904,573.361877 302.781158,558.235596 
	C290.112366,549.130066 280.012360,537.596863 272.087189,524.235046 
	C259.433624,502.900970 255.130219,479.519226 257.158112,455.126434 
	C258.856476,434.696838 266.568207,416.153656 278.850586,399.769165 
	C293.557312,380.150604 312.487793,365.927490 336.212402,359.245056 
	C346.500458,356.347229 357.409851,354.278320 368.049225,354.223907 
	C448.197784,353.814301 528.349365,354.000397 609.000000,354.000305 
M611.496765,563.834961 
	C626.210205,564.036804 640.705566,563.070068 654.786438,558.050171 
	C699.440369,542.130920 726.256714,495.810272 717.330322,449.610718 
	C708.217224,402.444885 669.653625,370.506073 620.988586,370.211761 
	C583.670776,369.986084 546.350525,370.162689 509.031342,370.176636 
	C507.452576,370.177246 505.873871,370.342346 504.378052,370.426147 
	C504.378052,435.150482 504.378052,499.226776 504.378052,563.183472 
	C504.961884,563.448914 505.253632,563.697449 505.545807,563.697876 
	C540.529785,563.755493 575.513794,563.794800 611.496765,563.834961 
M326.622894,447.076141 
	C323.533447,442.693695 318.880615,441.323090 313.965302,441.163239 
	C305.308136,440.881622 296.636505,441.074310 287.972046,440.971741 
	C285.299530,440.940063 283.965118,441.858307 283.975525,444.712372 
	C284.029572,459.544098 283.916840,474.377350 284.146332,489.205688 
	C284.166138,490.484619 286.228149,492.792358 287.392029,492.825104 
	C296.548218,493.082642 305.741638,493.307922 314.874542,492.745819 
	C324.522461,492.152039 328.743866,487.150238 328.901825,477.428894 
	C328.993866,471.764252 329.166046,466.083038 328.844513,460.435364 
	C328.602539,456.185303 327.632996,451.976685 326.622894,447.076141 
M454.584808,457.956665 
	C454.526093,455.963104 454.449432,453.969849 454.411499,451.975891 
	C454.164001,438.965332 456.398254,441.068085 442.955261,440.694916 
	C438.891998,440.582092 437.866760,442.170105 437.929199,445.973602 
	C438.123016,457.786163 437.881927,469.605408 438.031036,481.419250 
	C438.200836,494.873199 435.521515,492.732239 450.072662,493.045715 
	C453.398956,493.117371 454.507263,491.743378 454.428650,488.615784 
	C454.309174,483.862762 454.397369,479.104492 454.397369,474.370728 
	C458.837921,474.370728 462.432037,474.370728 466.591400,474.370728 
	C466.591400,477.103699 466.564850,479.562500 466.595825,482.020538 
	C466.758759,494.939270 465.010590,492.632599 477.806122,493.079681 
	C482.178314,493.232422 483.133881,491.465668 483.069305,487.515442 
	C482.876221,475.702850 483.137421,463.883087 482.963318,452.069916 
	C482.771484,439.054199 485.775848,440.964630 470.662476,440.727966 
	C467.612885,440.680237 466.505280,441.954041 466.572937,444.881287 
	C466.679565,449.495392 466.601288,454.113708 466.601288,458.732697 
	C462.323395,458.732697 458.696716,458.732697 454.584808,457.956665 
M343.590149,493.002045 
	C344.587585,493.002045 345.605621,492.871002 346.579041,493.023865 
	C351.782471,493.841187 353.493896,491.437500 352.903503,486.537842 
	C352.658600,484.505310 352.862854,482.418640 352.862854,480.394165 
	C357.523621,480.394165 361.285706,480.394165 365.169556,480.394165 
	C365.362091,481.247406 365.589508,481.868439 365.632141,482.501953 
	C366.361267,493.328522 366.354706,493.216278 377.355164,493.067963 
	C380.748535,493.022247 381.768494,491.926056 382.108368,488.479645 
	C383.643799,472.910187 379.878632,458.477264 373.154022,444.696442 
	C372.313904,442.974854 369.593323,441.341156 367.611328,441.165649 
	C362.168030,440.683594 356.649048,441.141113 351.170013,440.945801 
	C347.932159,440.830383 346.491302,442.400574 345.278412,445.140869 
	C339.289276,458.672211 335.444763,472.507019 336.776917,487.587402 
	C337.171570,492.054626 338.462341,493.600616 343.590149,493.002045 
M398.101135,472.718262 
	C402.375336,473.397186 406.674988,473.955322 410.904358,474.846985 
	C411.863190,475.049133 412.577972,476.408844 413.405121,477.235748 
	C412.430817,477.890656 411.486816,479.050049 410.476868,479.110687 
	C406.657501,479.339966 402.816742,479.216797 398.984009,479.218048 
	C389.307892,479.221222 389.433167,479.216003 389.706726,488.762421 
	C389.800964,492.051056 391.020203,493.146301 394.196442,493.050079 
	C399.690613,492.883636 405.193481,493.005707 410.692719,493.005280 
	C427.354553,493.003967 430.560944,489.707306 430.121704,473.031311 
	C429.924744,465.553314 427.062805,462.231384 419.556183,460.940308 
	C416.276093,460.376160 412.914642,460.197662 409.694611,459.414459 
	C408.412140,459.102570 407.412170,457.629211 406.283569,456.684601 
	C407.494843,456.095306 408.683136,455.061859 409.921570,454.997772 
	C414.076630,454.782837 418.261261,454.719116 422.412262,454.968719 
	C426.313477,455.203247 428.017914,453.731018 427.683838,449.810669 
	C427.542786,448.155823 427.632996,446.479645 427.648346,444.813446 
	C427.672974,442.136566 426.485138,440.894196 423.691803,440.966217 
	C419.028931,441.086487 414.360626,440.994781 409.694611,440.994873 
	C392.204010,440.995270 388.977417,444.459503 389.780792,461.965698 
	C390.023254,467.249146 392.210236,470.838776 398.101135,472.718262 
z"/>
<path fill="#FEFEFF" opacity="1.000000" stroke="none" 
	d="
M610.997314,563.834961 
	C575.513794,563.794800 540.529785,563.755493 505.545807,563.697876 
	C505.253632,563.697449 504.961884,563.448914 504.378052,563.183472 
	C504.378052,499.226776 504.378052,435.150482 504.378052,370.426147 
	C505.873871,370.342346 507.452576,370.177246 509.031342,370.176636 
	C546.350525,370.162689 583.670776,369.986084 620.988586,370.211761 
	C669.653625,370.506073 708.217224,402.444885 717.330322,449.610718 
	C726.256714,495.810272 699.440369,542.130920 654.786438,558.050171 
	C640.705566,563.070068 626.210205,564.036804 610.997314,563.834961 
M568.609192,432.206726 
	C559.122864,432.120178 549.631348,431.847443 540.154602,432.108917 
	C538.327393,432.159332 535.696411,433.885254 534.893066,435.543884 
	C525.315002,455.319580 519.866638,475.980469 522.219604,498.221375 
	C522.560364,501.441528 523.606689,503.149506 527.073975,503.029510 
	C531.066223,502.891327 535.071289,502.881409 539.062561,503.033386 
	C542.721130,503.172699 544.208008,501.598541 544.064209,497.976379 
	C543.908875,494.064209 544.029053,490.141083 544.029053,486.242249 
	C550.228394,486.242249 555.668701,486.242249 561.691895,486.242249 
	C561.691895,490.256958 561.823425,494.050354 561.655518,497.830475 
	C561.481323,501.752777 563.231995,503.214996 567.039734,503.040283 
	C571.028259,502.857269 575.036011,502.885071 579.027527,503.032501 
	C582.684021,503.167603 584.103699,501.582092 584.041077,497.967529 
	C583.908447,490.308990 584.319214,482.630493 583.934692,474.989014 
	C583.172607,459.843933 575.845093,446.764587 570.135681,433.196503 
	C570.024780,432.932861 569.620483,432.792633 568.609192,432.206726 
M649.151733,491.627441 
	C649.091553,484.209259 649.076599,484.187836 641.554016,484.179413 
	C633.944336,484.170898 626.334656,484.177521 618.505066,484.177521 
	C618.505066,481.168671 618.505066,478.772522 618.505066,475.835144 
	C622.237305,475.835144 625.692993,475.848206 629.148560,475.832794 
	C642.872681,475.771667 640.905457,477.141052 641.170715,463.281281 
	C641.244141,459.444000 639.869141,457.819672 635.943481,457.949921 
	C630.178955,458.141113 624.403381,457.999207 618.615356,457.999207 
	C618.615356,454.989624 618.615356,452.617004 618.615356,450.002289 
	C624.666016,450.002289 630.318970,450.066376 635.970093,449.989868 
	C651.109558,449.784943 648.873230,452.290741 649.208374,436.749420 
	C649.297363,432.621399 647.720337,431.101776 643.670898,431.135834 
	C629.683838,431.253571 615.694702,431.243042 601.707397,431.140839 
	C597.781860,431.112183 595.957031,432.421997 595.983704,436.643616 
	C596.112122,456.958801 596.108948,477.275635 595.987061,497.590912 
	C595.961914,501.773254 597.661743,503.109711 601.674744,503.058655 
	C613.995544,502.901825 626.319702,503.010620 638.642517,502.999756 
	C650.217346,502.989594 649.113098,503.996429 649.151733,491.627441 
M694.008728,454.541412 
	C693.636475,452.753448 693.323669,450.950714 692.882996,449.179779 
	C685.012085,417.552399 656.432678,394.821472 623.849487,394.255798 
	C618.551331,394.163788 615.040161,396.913849 614.708435,401.415436 
	C614.338867,406.430481 617.270142,409.615356 622.780579,410.159607 
	C623.773621,410.257690 624.775513,410.262360 625.771362,410.336731 
	C651.181458,412.233917 671.593018,429.234528 677.503357,453.697998 
	C678.588989,458.191803 678.693542,462.914673 679.426941,467.503662 
	C680.186584,472.257050 683.798950,475.313141 687.899597,474.925812 
	C692.322998,474.507965 695.226685,471.236694 695.096802,466.325531 
	C695.000488,462.682220 694.447693,459.050934 694.008728,454.541412 
z"/>
<path fill="#FCFDFF" opacity="1.000000" stroke="none" 
	d="
M326.805115,447.412872 
	C327.632996,451.976685 328.602539,456.185303 328.844513,460.435364 
	C329.166046,466.083038 328.993866,471.764252 328.901825,477.428894 
	C328.743866,487.150238 324.522461,492.152039 314.874542,492.745819 
	C305.741638,493.307922 296.548218,493.082642 287.392029,492.825104 
	C286.228149,492.792358 284.166138,490.484619 284.146332,489.205688 
	C283.916840,474.377350 284.029572,459.544098 283.975525,444.712372 
	C283.965118,441.858307 285.299530,440.940063 287.972046,440.971741 
	C296.636505,441.074310 305.308136,440.881622 313.965302,441.163239 
	C318.880615,441.323090 323.533447,442.693695 326.805115,447.412872 
M300.406067,472.349609 
	C300.406067,474.468475 300.406067,476.587372 300.406067,478.602051 
	C311.844727,480.571289 312.475616,480.063538 312.477203,469.452698 
	C312.477417,467.959656 312.477417,466.466644 312.477203,464.973602 
	C312.475647,454.282837 312.475403,454.279602 301.688263,455.070801 
	C301.406860,455.091431 301.144806,455.376099 300.406097,455.816284 
	C300.406097,460.820679 300.406097,466.101685 300.406067,472.349609 
z"/>
<path fill="#FEFFFF" opacity="1.000000" stroke="none" 
	d="
M454.827393,458.344666 
	C458.696716,458.732697 462.323395,458.732697 466.601288,458.732697 
	C466.601288,454.113708 466.679565,449.495392 466.572937,444.881287 
	C466.505280,441.954041 467.612885,440.680237 470.662476,440.727966 
	C485.775848,440.964630 482.771484,439.054199 482.963318,452.069916 
	C483.137421,463.883087 482.876221,475.702850 483.069305,487.515442 
	C483.133881,491.465668 482.178314,493.232422 477.806122,493.079681 
	C465.010590,492.632599 466.758759,494.939270 466.595825,482.020538 
	C466.564850,479.562500 466.591400,477.103699 466.591400,474.370728 
	C462.432037,474.370728 458.837921,474.370728 454.397369,474.370728 
	C454.397369,479.104492 454.309174,483.862762 454.428650,488.615784 
	C454.507263,491.743378 453.398956,493.117371 450.072662,493.045715 
	C435.521515,492.732239 438.200836,494.873199 438.031036,481.419250 
	C437.881927,469.605408 438.123016,457.786163 437.929199,445.973602 
	C437.866760,442.170105 438.891998,440.582092 442.955261,440.694916 
	C456.398254,441.068085 454.164001,438.965332 454.411499,451.975891 
	C454.449432,453.969849 454.526093,455.963104 454.827393,458.344666 
z"/>
<path fill="#FEFEFF" opacity="1.000000" stroke="none" 
	d="
M343.123169,493.002014 
	C338.462341,493.600616 337.171570,492.054626 336.776917,487.587402 
	C335.444763,472.507019 339.289276,458.672211 345.278412,445.140869 
	C346.491302,442.400574 347.932159,440.830383 351.170013,440.945801 
	C356.649048,441.141113 362.168030,440.683594 367.611328,441.165649 
	C369.593323,441.341156 372.313904,442.974854 373.154022,444.696442 
	C379.878632,458.477264 383.643799,472.910187 382.108368,488.479645 
	C381.768494,491.926056 380.748535,493.022247 377.355164,493.067963 
	C366.354706,493.216278 366.361267,493.328522 365.632141,482.501953 
	C365.589508,481.868439 365.362091,481.247406 365.169556,480.394165 
	C361.285706,480.394165 357.523621,480.394165 352.862854,480.394165 
	C352.862854,482.418640 352.658600,484.505310 352.903503,486.537842 
	C353.493896,491.437500 351.782471,493.841187 346.579041,493.023865 
	C345.605621,492.871002 344.587585,493.002045 343.123169,493.002014 
M354.941772,462.506195 
	C354.591644,463.860687 354.241547,465.215149 353.855499,466.708679 
	C357.679382,466.708679 361.018341,466.708679 364.654724,466.708679 
	C364.077393,464.760468 363.824921,463.090240 363.102264,461.657074 
	C361.947449,459.366730 360.480408,457.233826 359.145355,455.034424 
	C357.805725,457.258942 356.466095,459.483459 354.941772,462.506195 
z"/>
<path fill="#FCFDFF" opacity="1.000000" stroke="none" 
	d="
M397.731873,472.570129 
	C392.210236,470.838776 390.023254,467.249146 389.780792,461.965698 
	C388.977417,444.459503 392.204010,440.995270 409.694611,440.994873 
	C414.360626,440.994781 419.028931,441.086487 423.691803,440.966217 
	C426.485138,440.894196 427.672974,442.136566 427.648346,444.813446 
	C427.632996,446.479645 427.542786,448.155823 427.683838,449.810669 
	C428.017914,453.731018 426.313477,455.203247 422.412262,454.968719 
	C418.261261,454.719116 414.076630,454.782837 409.921570,454.997772 
	C408.683136,455.061859 407.494843,456.095306 406.283569,456.684570 
	C407.412170,457.629211 408.412140,459.102570 409.694611,459.414459 
	C412.914642,460.197662 416.276093,460.376160 419.556183,460.940308 
	C427.062805,462.231384 429.924744,465.553314 430.121704,473.031311 
	C430.560944,489.707306 427.354553,493.003967 410.692719,493.005280 
	C405.193481,493.005707 399.690613,492.883636 394.196442,493.050079 
	C391.020203,493.146301 389.800964,492.051056 389.706726,488.762421 
	C389.433167,479.216003 389.307892,479.221222 398.984009,479.218048 
	C402.816742,479.216797 406.657501,479.339966 410.476868,479.110687 
	C411.486816,479.050049 412.430817,477.890656 413.405090,477.235718 
	C412.577972,476.408844 411.863190,475.049133 410.904358,474.846985 
	C406.674988,473.955322 402.375336,473.397186 397.731873,472.570129 
z"/>
<path fill="#3D5AD9" opacity="1.000000" stroke="none" 
	d="
M568.981140,432.400787 
	C569.620483,432.792633 570.024780,432.932861 570.135681,433.196503 
	C575.845093,446.764587 583.172607,459.843933 583.934692,474.989014 
	C584.319214,482.630493 583.908447,490.308990 584.041077,497.967529 
	C584.103699,501.582092 582.684021,503.167603 579.027527,503.032501 
	C575.036011,502.885071 571.028259,502.857269 567.039734,503.040283 
	C563.231995,503.214996 561.481323,501.752777 561.655518,497.830475 
	C561.823425,494.050354 561.691895,490.256958 561.691895,486.242249 
	C555.668701,486.242249 550.228394,486.242249 544.029053,486.242249 
	C544.029053,490.141083 543.908875,494.064209 544.064209,497.976379 
	C544.208008,501.598541 542.721130,503.172699 539.062561,503.033386 
	C535.071289,502.881409 531.066223,502.891327 527.073975,503.029510 
	C523.606689,503.149506 522.560364,501.441528 522.219604,498.221375 
	C519.866638,475.980469 525.315002,455.319580 534.893066,435.543884 
	C535.696411,433.885254 538.327393,432.159332 540.154602,432.108917 
	C549.631348,431.847443 559.122864,432.120178 568.981140,432.400787 
M559.658569,467.074371 
	C558.419250,462.337738 557.437012,457.512207 555.841858,452.898590 
	C554.919128,450.229614 551.039185,450.063080 549.995239,452.630432 
	C548.110168,457.266571 546.828003,462.147888 545.134277,467.424408 
	C550.399597,467.424408 554.703613,467.424408 559.658569,467.074371 
z"/>
<path fill="#3D5BD9" opacity="1.000000" stroke="none" 
	d="
M649.151733,492.099335 
	C649.113098,503.996429 650.217346,502.989594 638.642517,502.999756 
	C626.319702,503.010620 613.995544,502.901825 601.674744,503.058655 
	C597.661743,503.109711 595.961914,501.773254 595.987061,497.590912 
	C596.108948,477.275635 596.112122,456.958801 595.983704,436.643616 
	C595.957031,432.421997 597.781860,431.112183 601.707397,431.140839 
	C615.694702,431.243042 629.683838,431.253571 643.670898,431.135834 
	C647.720337,431.101776 649.297363,432.621399 649.208374,436.749420 
	C648.873230,452.290741 651.109558,449.784943 635.970093,449.989868 
	C630.318970,450.066376 624.666016,450.002289 618.615356,450.002289 
	C618.615356,452.617004 618.615356,454.989624 618.615356,457.999207 
	C624.403381,457.999207 630.178955,458.141113 635.943481,457.949921 
	C639.869141,457.819672 641.244141,459.444000 641.170715,463.281281 
	C640.905457,477.141052 642.872681,475.771667 629.148560,475.832794 
	C625.692993,475.848206 622.237305,475.835144 618.505066,475.835144 
	C618.505066,478.772522 618.505066,481.168671 618.505066,484.177521 
	C626.334656,484.177521 633.944336,484.170898 641.554016,484.179413 
	C649.076599,484.187836 649.091553,484.209259 649.151733,492.099335 
z"/>
<path fill="#3E5CDA" opacity="1.000000" stroke="none" 
	d="
M694.053467,454.977844 
	C694.447693,459.050934 695.000488,462.682220 695.096802,466.325531 
	C695.226685,471.236694 692.322998,474.507965 687.899597,474.925812 
	C683.798950,475.313141 680.186584,472.257050 679.426941,467.503662 
	C678.693542,462.914673 678.588989,458.191803 677.503357,453.697998 
	C671.593018,429.234528 651.181458,412.233917 625.771362,410.336731 
	C624.775513,410.262360 623.773621,410.257690 622.780579,410.159607 
	C617.270142,409.615356 614.338867,406.430481 614.708435,401.415436 
	C615.040161,396.913849 618.551331,394.163788 623.849487,394.255798 
	C656.432678,394.821472 685.012085,417.552399 692.882996,449.179779 
	C693.323669,450.950714 693.636475,452.753448 694.053467,454.977844 
z"/>
<path fill="#3E5CDA" opacity="1.000000" stroke="none" 
	d="
M300.406067,471.866150 
	C300.406097,466.101685 300.406097,460.820679 300.406097,455.816284 
	C301.144806,455.376099 301.406860,455.091431 301.688263,455.070801 
	C312.475403,454.279602 312.475647,454.282837 312.477203,464.973602 
	C312.477417,466.466644 312.477417,467.959656 312.477203,469.452698 
	C312.475616,480.063538 311.844727,480.571289 300.406067,478.602051 
	C300.406067,476.587372 300.406067,474.468475 300.406067,471.866150 
z"/>
<path fill="#3E5CDA" opacity="1.000000" stroke="none" 
	d="
M355.034119,462.107117 
	C356.466095,459.483459 357.805725,457.258942 359.145325,455.034424 
	C360.480408,457.233826 361.947449,459.366730 363.102264,461.657074 
	C363.824921,463.090240 364.077393,464.760468 364.654724,466.708679 
	C361.018341,466.708679 357.679382,466.708679 353.855499,466.708679 
	C354.241547,465.215149 354.591644,463.860687 355.034119,462.107117 
z"/>
<path fill="#FCFDFF" opacity="1.000000" stroke="none" 
	d="
M559.333130,467.249390 
	C554.703613,467.424408 550.399597,467.424408 545.134277,467.424408 
	C546.828003,462.147888 548.110168,457.266571 549.995239,452.630432 
	C551.039185,450.063080 554.919128,450.229614 555.841858,452.898590 
	C557.437012,457.512207 558.419250,462.337738 559.333130,467.249390 
z"/>
</svg>